<svg xmlns="http://www.w3.org/2000/svg" width="256" height="256" viewBox="0 0 256 256" fill="none">
  <rect width="256" height="256" rx="48" fill="#21493D"/>
  <path
    d="M128 212.67c0 6.62-5.46 12-12.19 12H54.86A12.1 12.1 0 0 1 42.67 212.67V43.33c0-5.89 4.78-10.67 10.67-10.67h62.47c6.73 0 12.19 5.38 12.19 12v168"
    stroke="#F7F4EA"
    stroke-width="18"
    stroke-linecap="round"
    stroke-linejoin="round"
  />
  <path d="M128 96h-21.33" stroke="#F7F4EA" stroke-width="18" stroke-linecap="round"/>
  <path d="M128 64h-32" stroke="#F7F4EA" stroke-width="18" stroke-linecap="round"/>
  <path d="M128 128h-32" stroke="#F7F4EA" stroke-width="18" stroke-linecap="round"/>
  <path d="M128 192h-32" stroke="#F7F4EA" stroke-width="18" stroke-linecap="round"/>
  <path d="M128 160h-21.33" stroke="#F7F4EA" stroke-width="18" stroke-linecap="round"/>
  <path d="M224 32H181.33" stroke="#F2B84B" stroke-width="18" stroke-linecap="round"/>
  <path d="M202.67 32v192" stroke="#F2B84B" stroke-width="18" stroke-linecap="round"/>
  <path d="M224 224H181.33" stroke="#F2B84B" stroke-width="18" stroke-linecap="round"/>
</svg>
